<?xml version="1.0" standalone="no"?>
<!DOCTYPE svg PUBLIC "-//W3C//DTD SVG 20010904//EN"
 "http://www.w3.org/TR/2001/REC-SVG-20010904/DTD/svg10.dtd">
<svg version="1.0" xmlns="http://www.w3.org/2000/svg"
 width="250.000000pt" height="250.000000pt" viewBox="0 0 250.000000 250.000000"
 preserveAspectRatio="xMidYMid meet">

<g transform="translate(0.000000,250.000000) scale(0.100000,-0.100000)"
fill="#000000" stroke="none">
<path d="M361 2283 c-24 -9 -63 -35 -86 -58 -78 -78 -75 -33 -75 -975 0 -942
-3 -897 75 -975 78 -78 33 -75 975 -75 942 0 897 -3 975 75 78 78 75 33 75
975 0 942 3 897 -75 975 -78 79 -32 75 -979 74 -735 0 -847 -3 -885 -16z m419
-403 c124 -63 69 -231 -77 -230 -54 1 -119 32 -137 69 -62 119 83 228 214 161z
m70 -855 l0 -475 -150 0 -150 0 0 475 0 475 150 0 150 0 0 -475z m450 415 l0
-60 50 38 c76 58 139 77 245 76 134 0 220 -44 286 -147 61 -95 69 -150 69
-496 l0 -301 -150 0 -150 0 0 268 c0 153 -5 283 -10 304 -41 146 -236 175
-310 47 -25 -44 -25 -46 -28 -331 l-3 -288 -150 0 -149 0 0 475 0 475 150 0
150 0 0 -60z"/>
</g>
</svg>
